<svg width="9" height="13" viewBox="0 0 9 13" fill="none" xmlns="http://www.w3.org/2000/svg">
<path d="M7.94356 3.478C7.94356 4.09 7.82956 4.708 7.60156 5.332C7.38556 5.956 7.10356 6.568 6.75555 7.168C6.41955 7.768 6.04155 8.35 5.62155 8.914C5.21355 9.466 4.81155 9.976 4.41555 10.444L3.46155 11.182V11.272L4.75755 11.02H8.21355V13H0.635555V11.794C0.923555 11.494 1.24755 11.146 1.60755 10.75C1.96755 10.342 2.32755 9.916 2.68755 9.472C3.05955 9.016 3.41955 8.548 3.76755 8.068C4.11555 7.588 4.42755 7.108 4.70355 6.628C4.97956 6.136 5.19556 5.662 5.35156 5.206C5.51956 4.75 5.60356 4.318 5.60356 3.91C5.60356 3.418 5.45956 3.016 5.17155 2.704C4.89555 2.38 4.45155 2.218 3.83955 2.218C3.45555 2.218 3.05955 2.302 2.65155 2.47C2.25555 2.626 1.91955 2.83 1.64355 3.082L0.707555 1.426C1.17555 1.042 1.70355 0.736 2.29155 0.508C2.89155 0.267999 3.59355 0.147999 4.39756 0.147999C4.91355 0.147999 5.38755 0.219999 5.81956 0.364C6.25155 0.507999 6.62355 0.717999 6.93556 0.993999C7.24756 1.27 7.49356 1.618 7.67355 2.038C7.85356 2.446 7.94356 2.926 7.94356 3.478Z" fill="black"/>
</svg>
